<svg viewBox="0 0 32 32" xmlns="http://www.w3.org/2000/svg">
  <!-- 감귤 배경 원 -->
  <circle cx="16" cy="16" r="15" fill="#FF9500" />
  
  <!-- 감귤 질감 -->
  <path d="M16 1C7.716 1 1 7.716 1 16c0 8.284 6.716 15 15 15 8.284 0 15-6.716 15-15 0-8.284-6.716-15-15-15z" fill="#FF9500" stroke="#FF7E00" stroke-width="0.5" />
  
  <!-- 감귤 결 패턴 -->
  <path d="M16 4c-6.627 0-12 5.373-12 12s5.373 12 12 12 12-5.373 12-12S22.627 4 16 4z" fill="#FFA726" />
  <path d="M16 6c-5.523 0-10 4.477-10 10s4.477 10 10 10 10-4.477 10-10S21.523 6 16 6z" fill="#FFB74D" />
  
  <!-- 꼭지 부분 -->
  <path d="M16 5c0 0-1.5-3-1.5-4s1.5-1 1.5-1 1.5 0 1.5 1-1.5 4-1.5 4z" fill="#4CAF50" />
  
  <!-- 윤곽선 -->
  <circle cx="16" cy="16" r="15" fill="none" stroke="#E65100" stroke-width="0.75" />
  
  <!-- 잎 디테일 -->
  <path d="M18 2.5c0 0 2-1.5 3-1s-1 2-1 2" fill="#4CAF50" stroke="#388E3C" stroke-width="0.5" />
  <path d="M14 2.5c0 0-2-1.5-3-1s1 2 1 2" fill="#4CAF50" stroke="#388E3C" stroke-width="0.5" />
  
  <!-- 제주 "J" 마크 -->
  <path d="M15 13c0 0 0 6 1 6s4-1 4-3-1-3-3-3" fill="none" stroke="#E65100" stroke-width="2" stroke-linecap="round" />
</svg>